<?xml version="1.0" standalone="no"?><!DOCTYPE svg PUBLIC "-//W3C//DTD SVG 1.1//EN" "http://www.w3.org/Graphics/SVG/1.1/DTD/svg11.dtd"><svg t="1740401714243" class="icon" viewBox="0 0 1026 1024" version="1.1" xmlns="http://www.w3.org/2000/svg" p-id="4862" xmlns:xlink="http://www.w3.org/1999/xlink" width="200.390625" height="200"><path d="M419.915064 1021.074591a154.615398 154.615398 0 0 1-23.020515 2.920513 139.411551 139.411551 0 0 0 23.020515-2.920513z" fill="#E60012" p-id="4863"></path><path d="M627.700979 715.880975l-42.948721 42.089747a32.641028 32.641028 0 0 1-54.029492-13.142309l-16.234617-49.648722A76.534622 76.534622 0 0 0 386.586856 666.31815l-35.217952 37.27949a32.641028 32.641028 0 0 1-54.029492-10.221795l-27.143592-67.171801a76.534622 76.534622 0 0 0-118.023087-31.867952L68.766316 659.102765l-5.239744 23.793591a138.896166 138.896166 0 0 0 44.237183 135.803858l152.639757 132.797448c2.319231-0.601282 126.612831-33.328208 219.38207 54.888466l-49.73462 13.314104h2.319231l251.937202-68.717955a138.896166 138.896166 0 0 0 98.867957-103.076932l1.889744-8.589744-31.008978-93.198726a76.534622 76.534622 0 0 0-126.355139-30.2359z" fill="#FDBA3E" p-id="4864"></path><path d="M428.848398 1019.957924h1.202564c-3.35 0.858974-6.700001 0.858974-10.050001 1.460257 2.920513-0.944872 5.755129-0.773077 8.847437-1.460257z" fill="#E60012" p-id="4865"></path><path d="M396.894549 1023.995104a154.615398 154.615398 0 0 0 23.020515-2.920513c3.35-0.601282 6.785898-0.601282 10.050001-1.460257l49.73462-13.314103c-92.769239-88.216674-216.976942-55.489748-219.382071-54.888467l44.408978 38.567952a138.724371 138.724371 0 0 0 92.167957 34.015388z" fill="#FF7C20" p-id="4866"></path><path d="M550.39328 208.312982c105.653855 22.50513 249.102586 65.024365 351.320544 122.146164l13.228206-57.723081a138.896166 138.896166 0 0 0-104.451291-166.383348L361.5907 3.533477a138.896166 138.896166 0 0 0-166.383348 104.365394l-15.891027 69.405134c6.700001-0.601282 12.884616-1.460257 19.928207-1.889744 97.493598-6.270513 222.216686 4.982052 351.148748 32.898721zM255.335563 262.428371a640.537235 640.537235 0 0 0-96.978214 6.614104l-17.179489 73.442314C202.594532 381.310433 317.868901 433.192489 494.474045 470.815569c172.310271 36.678208 296.260282 37.107696 369.359006 26.54231l17.179489-75.761545c-61.846159-39.255132-175.660272-89.676931-348.915415-126.526934a1346.356527 1346.356527 0 0 0-276.761562-32.641029zM773.125351 592.016861a1468.846281 1468.846281 0 0 1-297.033359-34.358977c-128.846165-27.401284-247.384637-67.51539-334.055157-112.955138-7.558975-3.951282-14.173078-7.988462-21.130771-11.939745L68.766316 659.102765l83.148725-64.680775a76.534622 76.534622 0 0 1 118.194882 31.782054l26.971797 67.085903a32.641028 32.641028 0 0 0 54.029492 10.221796L386.586856 666.31815a76.534622 76.534622 0 0 1 128.33078 28.861541l16.234617 49.648722a32.641028 32.641028 0 0 0 54.029492 13.142309l42.948722-42.089747a76.534622 76.534622 0 0 1 126.355139 30.321797l30.665387 93.112829 57.379492-250.476945c-5.239744 0.429487-9.964103 1.116667-15.46154 1.460257q-25.85513 1.717949-53.943594 1.717948z" fill="#FF5069" p-id="4867"></path><path d="M901.971516 330.373249l-20.873079 91.137187c35.132054 22.333335 53.685902 41.058978 56.43462 51.538466-6.871795 8.589744-32.039746 18.210258-73.785903 24.223079l-21.302566 91.652572c108.574368-9.448719 170.162835-41.917952 181.930785-97.150008 13.056411-61.244877-41.574363-115.875651-122.403857-161.401296zM88.265035 293.866836c5.239744-8.589744 28.861541-18.46795 70.092314-24.910259l20.958976-91.652572C73.576573 187.354006 13.53426 219.651445 1.938105 274.110424s28.947438 106.942317 118.882061 158.480783l20.615387-90.192316c-34.27308-21.817951-51.710261-39.684619-53.170518-48.532055z" fill="#00A9DC" p-id="4868"></path><path d="M255.335563 262.428371a1346.356527 1346.356527 0 0 1 276.589767 32.641029c173.169246 36.850003 286.983358 87.271802 348.915415 126.526934L901.971516 330.373249c-101.874368-57.035902-245.666688-99.641034-351.320543-122.146164-128.846165-27.487182-253.569253-39.169234-351.148749-32.898721-7.04359 0.429487-13.314104 1.288462-19.928206 1.889744l-21.302566 91.824367a640.537235 640.537235 0 0 1 97.064111-6.614104z" fill="#FF5069" p-id="4869"></path><path d="M494.474045 470.815569c-176.948733-37.62308-292.051307-89.505136-352.952595-128.416678l-20.615386 90.192316c6.957693 3.951282 13.571796 7.988462 21.130771 11.939744C228.53556 489.627109 347.159929 530.170702 476.006094 557.571987a1468.846281 1468.846281 0 0 0 297.033359 34.358977q28.174361 0 54.029492-1.632051c5.411539 0 10.221796-1.030769 15.46154-1.460257l20.958976-91.480777c-73.184622 10.565386-196.705145 10.135898-369.015416-26.54231z" fill="#8F3694" p-id="4870"></path><path d="M43.512467 391.360434m-36.162823 0a36.162824 36.162824 0 1 0 72.325647 0 36.162824 36.162824 0 1 0-72.325647 0Z" fill="#FDBA3E" p-id="4871"></path><path d="M745.122784 475.969415m-59.011543 0a59.011544 59.011544 0 1 0 118.023087 0 59.011544 59.011544 0 1 0-118.023087 0Z" fill="#FDBA3E" p-id="4872"></path></svg>